<svg xmlns="http://www.w3.org/2000/svg" viewBox="0 0 1563.31 1846.79"><defs><style>.cls-1,.cls-3{fill:none;stroke-miterlimit:10;}.cls-1{stroke:#1e1e1c;}.cls-2{fill:#00733a;}.cls-3{stroke:#003c23;stroke-width:4.25px;}.cls-4{fill:#fff;}.cls-5{fill:#fff100;}.cls-6{fill:#003c23;}</style></defs><title>Asset 3</title><g id="Layer_2" data-name="Layer 2"><g id="Layer_1-2" data-name="Layer 1"><path class="cls-1" d="M1486.07,147.59C1237.23,51.1,984.33,2.28,762.81,2.13h-1c-306.65.15-517,66.2-709,144.44,0,0-71.21,301.1-44.76,560.5S140.26,1496.46,767.9,1844.36C1425,1477.13,1550.16,950.2,1560.33,660.28S1486.07,147.59,1486.07,147.59Z"/><path class="cls-2" d="M1486.07,147.59C1237.23,51.1,984.33,2.28,762.81,2.13h-1c-306.65.15-517,66.2-709,144.44,0,0-71.21,301.1-44.76,560.5S140.26,1496.46,767.9,1844.36C1425,1477.13,1550.16,950.2,1560.33,660.28s-74.26-512.69-74.26-512.69"/><path class="cls-3" d="M1486.07,147.59C1237.23,51.1,984.33,2.28,762.81,2.13h-1c-306.65.15-517,66.2-709,144.44,0,0-71.21,301.1-44.76,560.5S140.26,1496.46,767.9,1844.36C1425,1477.13,1550.16,950.2,1560.33,660.28S1486.07,147.59,1486.07,147.59Z"/><path class="cls-4" d="M220.6,366q1.42,10,5.57,15,7.59,9,26,9,11,0,17.91-2.38,13.06-4.56,13.05-16.95a12.49,12.49,0,0,0-6.39-11.2q-6.4-3.87-20.28-6.84l-15.82-3.47q-23.32-5.15-32-11.2-14.77-10.11-14.77-31.62,0-19.62,14.45-32.61t42.44-13q23.38,0,39.88,12.24t17.31,35.53H278.58q-.81-13.18-11.79-18.73-7.32-3.66-18.19-3.67-12.09,0-19.31,4.76a15.05,15.05,0,0,0-7.21,13.28q0,7.83,7.12,11.7,4.57,2.58,19.41,6l25.64,6q16.85,4,25.27,10.6,13.06,10.31,13.06,29.83,0,20-15.48,33.25t-43.73,13.23q-28.85,0-45.38-13T191.46,366Z"/><rect class="cls-4" x="333.54" y="264.96" width="30.33" height="146.1"/><path class="cls-4" d="M491.36,265h43.93v146.1H506.84V312.24q0-4.26.1-11.94t.1-11.84L479.35,411.06H449.68L422.2,288.45q0,4.16.1,11.84t.1,11.94v98.82H393.95V265h44.42L465,379.84Z"/><rect class="cls-4" x="563.09" y="264.96" width="30.33" height="146.1"/><polygon class="cls-4" points="623.99 264.96 654.52 264.96 654.52 384.79 727.47 384.79 727.47 411.06 623.99 411.06 623.99 264.96"/><rect class="cls-4" x="747.54" y="264.96" width="30.33" height="146.1"/><polygon class="cls-4" points="916.48 290.83 839.17 290.83 839.17 321.85 910.13 321.85 910.13 347.23 839.17 347.23 839.17 384.79 920.05 384.79 920.05 411.06 809.33 411.06 809.33 264.96 916.48 264.96 916.48 290.83"/><polygon class="cls-4" points="945.37 264.96 977.37 264.96 1035.37 366.83 1035.37 264.96 1063.81 264.96 1063.81 411.06 1033.29 411.06 973.81 307.4 973.81 411.06 945.37 411.06 945.37 264.96"/><polygon class="cls-4" points="1093.99 264.96 1125.99 264.96 1183.98 366.83 1183.98 264.96 1212.43 264.96 1212.43 411.06 1181.91 411.06 1122.43 307.4 1122.43 411.06 1093.99 411.06 1093.99 264.96"/><polygon class="cls-4" points="1351.14 290.83 1273.83 290.83 1273.83 321.85 1344.8 321.85 1344.8 347.23 1273.83 347.23 1273.83 384.79 1354.71 384.79 1354.71 411.06 1244 411.06 1244 264.96 1351.14 264.96 1351.14 290.83"/><polygon class="cls-5" points="313.13 429.46 349.27 429.46 414.74 544.47 414.74 429.46 446.86 429.46 446.86 594.4 412.4 594.4 345.25 477.37 345.25 594.4 313.13 594.4 313.13 429.46"/><path class="cls-5" d="M528.66,429.46h39L626,594.4H588.64L577.76,560.5H517L505.83,594.4H469.78Zm-2.27,102.62h42.24l-20.84-64.9Z"/><polygon class="cls-5" points="648.73 429.46 684.87 429.46 750.34 544.47 750.34 429.46 782.46 429.46 782.46 594.4 748 594.4 680.85 477.37 680.85 594.4 648.73 594.4 648.73 429.46"/><polygon class="cls-5" points="936.94 429.46 936.94 458.66 887.59 458.66 887.59 594.4 852.9 594.4 852.9 458.66 803.33 458.66 803.33 429.46 936.94 429.46"/><polygon class="cls-5" points="1081.35 458.66 994.07 458.66 994.07 493.69 1074.19 493.69 1074.19 522.34 994.07 522.34 994.07 564.75 1085.38 564.75 1085.38 594.4 960.38 594.4 960.38 429.45 1081.35 429.45 1081.35 458.66"/><path class="cls-5" d="M1139.37,543.49q1.6,11.31,6.28,16.9,8.57,10.18,29.36,10.18,12.45,0,20.22-2.69,14.74-5.15,14.74-19.14,0-8.17-7.22-12.65t-22.9-7.72L1162,524.46q-26.33-5.82-36.17-12.65-16.68-11.41-16.68-35.7,0-22.16,16.31-36.82t47.92-14.66q26.39,0,45,13.82T1238,478.58h-33.12q-.92-14.88-13.31-21.15-8.26-4.14-20.54-4.14-13.65,0-21.8,5.37a17,17,0,0,0-8.15,15q0,8.84,8,13.21,5.16,2.91,21.92,6.83l28.94,6.83q19,4.48,28.53,12,14.75,11.64,14.75,33.68,0,22.61-17.48,37.54t-49.37,14.94q-32.58,0-51.24-14.71t-18.66-40.46Z"/><path class="cls-5" d="M171.79,667.4c540.16-29.5,1008.09-13.22,1195.26,0-237,2-1195.26,0-1195.26,0"/><path class="cls-4" d="M1125,1271.65C1104.62,1166,1011,1125.17,849.28,1081.42c-78-21.09-218.71-52.9-203.45-154.62S826.25,805.4,949,871.87c48.83,26.45,98.67,55.95,120,73.24L1117.83,878c-112.91-71.21-192.26-126.14-361.12-126.14-222.8,0-318.4,95.62-323.48,160.72-5.71,73.13,30,156.75,222.78,194.29,193.28,37.64,266.21,120.28,255.33,225.83-10.17,98.67-118,127.16-195.31,124.1-62-2.45-184.12-60-257.36-185.14l-51.88,76.29c51.88,68.15,152.84,249.75,422.16,209.55,136.31-20.35,332.64-95.62,296-285.85"/><path class="cls-6" d="M1064.88,950.2c-18.92-15.32-63.42-42.45-119-72.57-45.14-24.45-97.77-37.91-148.19-37.91-97.43,0-139,45.49-145.35,88.06a92.15,92.15,0,0,0-1,15.67c12.57-38.13,55-74.5,142.09-74.5,50.43,0,103.05,13.46,148.2,37.91,55.61,30.12,100.11,57.25,119,72.57l5.36,4.34,57-78.37-11.63-7.34-41.09,56.49Z"/><path class="cls-6" d="M650.46,1142.51C822.21,1176,906.53,1246,901.32,1350.89a121.17,121.17,0,0,0,3.5-18.88c11.4-110.6-72.73-184.2-250.07-218.73-154.18-30-231-94.39-228.56-191.4a89.72,89.72,0,0,0-3.79,19.39c-8,102.5,68.72,170.2,228.05,201.23"/><path class="cls-6" d="M1100.72,1428.71c-67.78,95.71-212,126.47-270.82,135.26a512.42,512.42,0,0,1-75.27,5.82h0c-196.24,0-288.37-128.24-337.86-197.13-3.43-4.77-6.72-9.34-9.85-13.61l-12.46,18.33,2.85,3.75c4.61,6.06,9.74,13.2,15.17,20.75C461.94,1470.77,554.06,1599,750.3,1599h0a512.41,512.41,0,0,0,75.27-5.82c58.85-8.78,203-39.54,270.82-135.26a188.38,188.38,0,0,0,34.66-97.09,188.13,188.13,0,0,1-30.37,67.86"/><path class="cls-6" d="M1486.07,147.59C1237.23,51.1,984.33,2.28,762.81,2.13h-1c-306.65.15-517,66.2-709,144.44,0,0-71.21,301.1-44.76,560.5S140.26,1496.46,767.9,1844.36C1425,1477.13,1550.16,950.2,1560.33,660.28s-74.26-512.69-74.26-512.69M1318.23,1286.91c-220.74,341.79-551.35,497.43-551.35,497.43-539.14-286.86-683.59-772.09-710-1050.82S101.6,195.4,101.6,195.4C212.48,126.23,517.66,60.11,717,57.06,328.45,94.7,191.12,193.37,191.12,193.37S388.47,79.44,753.66,79.44s673.42,134.28,673.42,134.28c126.14,406.9,33.57,652.05-20.34,836.17,97.66-218.71,96.64-352,97.66-571.69C1518.62,642,1539,945.11,1318.23,1286.91"/></g></g></svg>