<svg xmlns="http://www.w3.org/2000/svg" xmlns:xlink="http://www.w3.org/1999/xlink" viewBox="0 0 512 512"><defs><style>.a,.c,.e{fill:none;}.b{clip-path:url(#a);}.c{stroke:#1e1e1c;stroke-width:0.25px;}.c,.e{stroke-miterlimit:10;}.d{fill:#00733a;}.e{stroke:#003c23;stroke-width:1.08px;}.f{fill:#fff;}.g{fill:#fff100;}.h{fill:#003c23;}</style><clipPath id="a"><rect class="a" x="59.04" y="19.62" width="400.26" height="472.38"/></clipPath></defs><title>similienne-square</title><g class="b"><path class="c" d="M438.06,58.51c-63.31-24.55-127.65-37-184-37h-.26c-78,0-131.53,16.84-180.39,36.75,0,0-18.12,76.61-11.39,142.6S95.66,401.69,255.34,490.21C422.53,396.78,454.37,262.71,457,189S438.06,58.51,438.06,58.51Z"/><path class="d" d="M438.06,58.51c-63.31-24.55-127.65-37-184-37h-.26c-78,0-131.53,16.84-180.39,36.75,0,0-18.12,76.61-11.39,142.6S95.66,401.69,255.34,490.21C422.53,396.78,454.37,262.71,457,189S438.06,58.51,438.06,58.51"/><path class="e" d="M438.06,58.51c-63.31-24.55-127.65-37-184-37h-.26c-78,0-131.53,16.84-180.39,36.75,0,0-18.12,76.61-11.39,142.6S95.66,401.69,255.34,490.21C422.53,396.78,454.37,262.71,457,189S438.06,58.51,438.06,58.51Z"/><path class="f" d="M116.1,114.07a7.54,7.54,0,0,0,1.42,3.81q1.93,2.3,6.62,2.29a14.24,14.24,0,0,0,4.56-.61q3.32-1.16,3.32-4.31a3.18,3.18,0,0,0-1.63-2.85,17.66,17.66,0,0,0-5.16-1.74l-4-.88q-5.93-1.31-8.15-2.85-3.76-2.57-3.76-8a10.68,10.68,0,0,1,3.68-8.3q3.68-3.3,10.8-3.3a16.56,16.56,0,0,1,10.15,3.11,11.07,11.07,0,0,1,4.4,9h-7.46a5.32,5.32,0,0,0-3-4.77,10.28,10.28,0,0,0-4.63-.93A8.81,8.81,0,0,0,118.31,95a3.83,3.83,0,0,0-1.84,3.38,3.19,3.19,0,0,0,1.81,3,22.47,22.47,0,0,0,4.94,1.54l6.52,1.54a16.6,16.6,0,0,1,6.43,2.7,9.1,9.1,0,0,1,3.32,7.59,10.66,10.66,0,0,1-3.94,8.46q-3.94,3.37-11.13,3.37-7.34,0-11.55-3.32a11,11,0,0,1-4.21-9.12Z"/><rect class="f" x="144.83" y="88.37" width="7.72" height="37.17"/><path class="f" d="M185,88.37h11.18v37.17h-7.24V100.4q0-1.08,0-3t0-3l-7,31.19h-7.55l-7-31.19q0,1.06,0,3t0,3v25.14H160.2V88.37h11.3l6.77,29.23Z"/><rect class="f" x="203.23" y="88.37" width="7.72" height="37.17"/><polygon class="f" points="218.73 88.37 226.5 88.37 226.5 118.86 245.06 118.86 245.06 125.54 218.73 125.54 218.73 88.37"/><rect class="f" x="250.16" y="88.37" width="7.72" height="37.17"/><polygon class="f" points="293.14 94.96 273.48 94.96 273.48 102.85 291.53 102.85 291.53 109.3 273.48 109.3 273.48 118.86 294.05 118.86 294.05 125.54 265.88 125.54 265.88 88.37 293.14 88.37 293.14 94.96"/><polygon class="f" points="300.5 88.37 308.64 88.37 323.39 114.29 323.39 88.37 330.63 88.37 330.63 125.54 322.87 125.54 307.73 99.17 307.73 125.54 300.5 125.54 300.5 88.37"/><polygon class="f" points="338.31 88.37 346.45 88.37 361.2 114.29 361.2 88.37 368.44 88.37 368.44 125.54 360.68 125.54 345.55 99.17 345.55 125.54 338.31 125.54 338.31 88.37"/><polygon class="f" points="403.73 94.96 384.06 94.96 384.06 102.85 402.12 102.85 402.12 109.3 384.06 109.3 384.06 118.86 404.64 118.86 404.64 125.54 376.47 125.54 376.47 88.37 403.73 88.37 403.73 94.96"/><polygon class="g" points="139.64 130.22 148.83 130.22 165.49 159.49 165.49 130.22 173.66 130.22 173.66 172.19 164.9 172.19 147.81 142.41 147.81 172.19 139.64 172.19 139.64 130.22"/><path class="g" d="M194.48,130.22h9.92l14.85,42h-9.51L207,163.56H191.51l-2.84,8.63h-9.17Zm-.58,26.11h10.75l-5.3-16.51Z"/><polygon class="g" points="225.03 130.22 234.22 130.22 250.88 159.49 250.88 130.22 259.05 130.22 259.05 172.19 250.28 172.19 233.2 142.41 233.2 172.19 225.03 172.19 225.03 130.22"/><polygon class="g" points="298.35 130.22 298.35 137.66 285.8 137.66 285.8 172.19 276.97 172.19 276.97 137.66 264.36 137.66 264.36 130.22 298.35 130.22"/><polygon class="g" points="335.09 137.66 312.88 137.66 312.88 146.57 333.27 146.57 333.27 153.86 312.88 153.86 312.88 164.65 336.12 164.65 336.12 172.19 304.32 172.19 304.32 130.22 335.09 130.22 335.09 137.66"/><path class="g" d="M349.85,159.24a8.51,8.51,0,0,0,1.6,4.3q2.18,2.59,7.47,2.59a16.08,16.08,0,0,0,5.15-.68q3.75-1.31,3.75-4.87a3.59,3.59,0,0,0-1.84-3.22,19.94,19.94,0,0,0-5.83-2l-4.54-1q-6.7-1.48-9.2-3.22-4.24-2.9-4.24-9.08a12.06,12.06,0,0,1,4.15-9.37q4.15-3.73,12.19-3.73A18.69,18.69,0,0,1,370,132.52q4.74,3.52,5,10.21h-8.43a6,6,0,0,0-3.39-5.38,11.6,11.6,0,0,0-5.22-1.05,9.94,9.94,0,0,0-5.55,1.37,4.32,4.32,0,0,0-2.07,3.82,3.6,3.6,0,0,0,2,3.36,25.39,25.39,0,0,0,5.58,1.74l7.36,1.74a18.75,18.75,0,0,1,7.26,3q3.75,3,3.75,8.57a12,12,0,0,1-4.45,9.55q-4.45,3.8-12.56,3.8-8.29,0-13-3.74a12.39,12.39,0,0,1-4.75-10.29Z"/><path class="g" d="M103.68,190.76c137.43-7.51,256.48-3.36,304.1,0-60.3.52-304.1,0-304.1,0"/><path class="f" d="M346.19,344.5c-5.17-26.87-29-37.27-70.14-48.4-19.84-5.36-55.64-13.46-51.76-39.34s45.9-30.89,77.13-14c12.42,6.73,25.1,14.23,30.54,18.63l12.42-17.08c-28.73-18.12-48.92-32.09-91.88-32.09-56.68,0-81,24.33-82.3,40.89-1.45,18.61,7.63,39.88,56.68,49.43s67.73,30.6,65,57.46c-2.59,25.1-30,32.35-49.69,31.58-15.77-.62-46.84-15.27-65.48-47.1l-13.2,19.41c13.2,17.34,38.89,63.54,107.41,53.32,34.68-5.18,84.63-24.33,75.31-72.73"/><path class="h" d="M330.9,262.71c-4.81-3.9-16.14-10.8-30.28-18.46a80.58,80.58,0,0,0-37.7-9.65c-24.79,0-35.36,11.57-37,22.4a23.45,23.45,0,0,0-.26,4c3.2-9.7,14-19,36.15-19a80.58,80.58,0,0,1,37.7,9.65c14.15,7.66,25.47,14.57,30.28,18.46l1.36,1.1,14.5-19.94-3-1.87-10.45,14.37Z"/><path class="h" d="M225.46,311.64c43.7,8.51,65.15,26.34,63.82,53a30.83,30.83,0,0,0,.89-4.8c2.9-28.14-18.5-46.86-63.62-55.65-39.23-7.64-58.77-24-58.15-48.7a22.83,22.83,0,0,0-1,4.93c-2,26.08,17.48,43.3,58,51.2"/><path class="h" d="M340,384.46c-17.25,24.35-53.93,32.18-68.9,34.41A130.37,130.37,0,0,1,252,420.35h0c-49.93,0-73.37-32.63-86-50.15-.87-1.21-1.71-2.38-2.51-3.46l-3.17,4.66.73,1c1.17,1.54,2.48,3.36,3.86,5.28,12.59,17.53,36,50.15,86,50.15h0A130.37,130.37,0,0,0,270,426.31c15-2.23,51.66-10.06,68.9-34.41a47.93,47.93,0,0,0,8.82-24.7A47.86,47.86,0,0,1,340,384.46"/><path class="h" d="M438.06,58.51c-63.31-24.55-127.65-37-184-37h-.26c-78,0-131.53,16.84-180.39,36.75,0,0-18.12,76.61-11.39,142.6S95.66,401.69,255.34,490.21C422.53,396.78,454.37,262.71,457,189S438.06,58.51,438.06,58.51m-42.7,289.87c-56.16,87-140.28,126.56-140.28,126.56C117.91,402,81.16,278.5,74.43,207.59S85.82,70.68,85.82,70.68C114,53.08,191.68,36.25,242.4,35.48c-98.87,9.58-133.8,34.68-133.8,34.68s50.21-29,143.12-29S423.05,75.34,423.05,75.34c32.09,103.52,8.54,165.9-5.18,212.74,24.85-55.64,24.59-89.55,24.85-145.45,3.62,41.67,8.8,118.79-47.36,205.75"/></g></svg>